<svg width="77" height="81" viewBox="0 0 77 81" fill="none" xmlns="http://www.w3.org/2000/svg">
<path d="M16.6666 34.7312C-6.49739 50.6549 13.7217 81 37.1659 81C60.61 81 68.6814 67.4101 68.6814 50.3003C68.6814 34.7312 56.1059 36.5276 61.822 20.3597C51.533 22.7549 53.9337 27.5454 52.1046 37.1264C49.8181 49.1027 38.4655 41.3223 45.3248 34.1365C55.9036 23.0544 45.8971 6.00587 33.2436 0C37.373 13.3504 39.4073 19.0985 16.6666 34.7312Z" fill="black"/>
<path d="M38.1367 11.1758C40.9884 11.1758 43.6684 12.1621 45.6367 14.1846C47.5974 16.1993 48.5303 18.9112 48.5303 21.7725C48.5302 24.6337 47.5975 27.3456 45.6367 29.3604C45.1844 29.8252 44.6922 30.2347 44.1689 30.5918L67.9678 41.2002C71.6782 42.5548 74.2734 46.1576 74.2734 50.3271C74.2734 53.1113 73.0972 55.4687 71.0078 56.9912C69.0974 58.3831 66.7884 58.8193 64.7568 58.8193H62.2578C60.1896 70.2353 49.4784 78.6581 38.1367 78.6582C26.795 78.6582 16.0839 70.2353 14.0156 58.8193H11.5166C9.48482 58.8193 7.17525 58.3834 5.26465 56.9912C3.17528 55.4687 2 53.1112 2 50.3271C2.00001 46.1578 4.59457 42.555 8.30469 41.2002L32.5586 30.3896C33.0861 30.1272 33.6268 29.9027 34.1777 29.7188V28.3594C34.178 26.1733 35.9506 24.4014 38.1367 24.4014C39.159 24.4013 39.6983 24.075 39.9805 23.7852C40.27 23.4876 40.6132 22.8917 40.6133 21.7725C40.6133 20.6534 40.27 20.0574 39.9805 19.7598C39.6983 19.4699 39.159 19.1436 38.1367 19.1436C37.1143 19.1436 36.5751 19.4699 36.293 19.7598C36.0034 20.0574 35.6592 20.6531 35.6592 21.7725C35.6591 23.1208 34.8877 24.8784 33.0312 25.3555L32.4316 25.5098C30.4463 26.0199 27.8456 24.8454 27.75 22.1865C27.7451 22.0491 27.7422 21.9108 27.7422 21.7725C27.7422 18.9111 28.6759 16.1993 30.6367 14.1846C32.605 12.1621 35.285 11.1758 38.1367 11.1758Z" fill="#F0F0F1" stroke="black" stroke-width="4"/>
<path d="M24.1619 52.2017C24.9931 52.1963 25.9565 52.3033 26.6804 52.9058C27.8575 53.8858 30.7092 56.5035 33.6785 59.4585L34.2527 60.0298L33.4851 60.2876C31.6554 60.9011 30.0566 61.3446 28.6755 61.5122C27.2935 61.6798 26.081 61.5772 25.0554 61.0483C24.0213 60.5149 23.2471 59.5845 22.6736 58.2407C22.1037 56.9054 21.7188 55.1334 21.4695 52.8618L21.406 52.2866L21.9841 52.3071C22.2421 52.3164 22.5612 52.2939 22.9441 52.2651C23.3158 52.2372 23.7377 52.2044 24.1619 52.2017ZM52.1111 52.2017C52.5353 52.2044 52.9571 52.2372 53.3289 52.2651C53.7118 52.2939 54.0308 52.3164 54.2888 52.3071L54.8669 52.2866L54.8035 52.8618C54.5541 55.1334 54.1692 56.9054 53.5994 58.2407C53.0259 59.5845 52.2517 60.5149 51.2175 61.0483C50.1919 61.5772 48.9795 61.6799 47.5974 61.5122C46.2164 61.3447 44.6183 60.901 42.7888 60.2876L42.0212 60.0298L42.5945 59.4585C45.5638 56.5035 48.4154 53.8858 49.5925 52.9058C50.3164 52.3033 51.2799 52.1963 52.1111 52.2017Z" fill="black" stroke="black"/>
</svg>
