<svg width="24" height="22" viewBox="0 0 24 22" fill="none" xmlns="http://www.w3.org/2000/svg">
<path d="M16.9805 1C20.2336 1.0002 22.8329 3.51167 22.833 7.33691C22.833 9.55317 21.902 11.8337 20.1162 14.1113C18.3297 16.3897 15.7259 18.6141 12.4951 20.6885L12.4941 20.6895C12.336 20.7912 12.1786 20.8808 12.0439 20.9414C11.99 20.9657 11.9468 20.9793 11.916 20.9893C11.8854 20.9793 11.8431 20.9652 11.79 20.9414C11.6553 20.8808 11.4972 20.7913 11.3389 20.6895C8.11351 18.6149 5.50988 16.3901 3.72168 14.1113C1.93389 11.8331 1 9.55261 1 7.33691C1.00015 3.51267 3.59906 1 6.86523 1C8.78558 1.00006 10.2388 1.87126 11.0869 3.12988L11.9102 4.35156L12.7422 3.13574C13.6151 1.85933 15.0607 1 16.9805 1Z" fill="#79828F" stroke="#79828F" stroke-width="2"/>
</svg>
