<svg width="26" height="24" viewBox="0 0 26 24" fill="none" xmlns="http://www.w3.org/2000/svg">
<path d="M4.76924 8.88739V20.1101C4.76924 21.1945 5.60112 22 6.53847 22H8V15C8 13.3431 9.34315 12 11 12H15C16.6569 12 18 13.3431 18 15V22H19.4615C20.3989 22 21.2308 21.1945 21.2308 20.1101V8.88739L14.2287 2.53035L14.2111 2.51266C13.5299 1.82911 12.4701 1.82911 11.7889 2.51266L11.7713 2.53036L4.76924 8.88739Z" fill="#79828F"/>
<path d="M11 14H15C15.5523 14 16 14.4477 16 15V22H18V15C18 13.3431 16.6569 12 15 12H11C9.34315 12 8 13.3431 8 15V22H10V15C10 14.4477 10.4477 14 11 14Z" fill="#79828F"/>
<path fill-rule="evenodd" clip-rule="evenodd" d="M25.6722 10.2184L15.6087 1.08193C14.1511 -0.360646 11.8489 -0.360644 10.3913 1.08194L0.327826 10.2184C-0.0810782 10.5896 -0.111615 11.222 0.25962 11.6309C0.630856 12.0398 1.26328 12.0704 1.67219 11.6991L2.76924 10.7031V20.1101C2.76924 22.2178 4.41701 24 6.53847 24H8H10V22H8H6.53847C5.60112 22 4.76924 21.1945 4.76924 20.1101V8.88739L11.7713 2.53036L11.7889 2.51266C12.4701 1.82911 13.5299 1.82911 14.2111 2.51266L14.2287 2.53035L21.2308 8.88739V20.1101C21.2308 21.1945 20.3989 22 19.4615 22H18H16V24H18H19.4615C21.583 24 23.2308 22.2178 23.2308 20.1101V10.7031L24.3278 11.6991C24.7367 12.0704 25.3692 12.0398 25.7404 11.6309C26.1116 11.222 26.0811 10.5896 25.6722 10.2184Z" fill="#79828F"/>
</svg>
