<svg width="18" height="25" viewBox="0 0 18 25" fill="none" xmlns="http://www.w3.org/2000/svg">
<path fill-rule="evenodd" clip-rule="evenodd" d="M4 21C4.55228 21 5 21.4477 5 22V23.5C5 24.0523 4.55228 24.5 4 24.5C3.44772 24.5 3 24.0523 3 23.5V22C3 21.4477 3.44772 21 4 21Z" fill="#79828F"/>
<path fill-rule="evenodd" clip-rule="evenodd" d="M14 21C14.5523 21 15 21.4477 15 22V23.5C15 24.0523 14.5523 24.5 14 24.5C13.4477 24.5 13 24.0523 13 23.5V22C13 21.4477 13.4477 21 14 21Z" fill="#79828F"/>
<path fill-rule="evenodd" clip-rule="evenodd" d="M8 2H3C2.44772 2 2 2.44772 2 3V19.5C2 20.0523 2.44772 20.5 3 20.5H8V2ZM5 9C5.55228 9 6 9.44771 6 10V13.5C6 14.0523 5.55228 14.5 5 14.5C4.44772 14.5 4 14.0523 4 13.5V10C4 9.44771 4.44772 9 5 9Z" fill="#79828F"/>
<path fill-rule="evenodd" clip-rule="evenodd" d="M15 20.5C15.5523 20.5 16 20.0523 16 19.5V3C16 2.44772 15.5523 2 15 2H10V20.5H15ZM13 9C13.5523 9 14 9.44771 14 10V13.5C14 14.0523 13.5523 14.5 13 14.5C12.4477 14.5 12 14.0523 12 13.5V10C12 9.44771 12.4477 9 13 9Z" fill="#79828F"/>
<path fill-rule="evenodd" clip-rule="evenodd" d="M10 2H15C15.5523 2 16 2.44772 16 3V19.5C16 20.0523 15.5523 20.5 15 20.5H10V22V22.5H15C16.6569 22.5 18 21.1569 18 19.5V3C18 1.34315 16.6569 0 15 0H10V2ZM8 22V20.5H3C2.44772 20.5 2 20.0523 2 19.5V3C2 2.44772 2.44772 2 3 2H8V0H3C1.34315 0 0 1.34315 0 3V19.5C0 21.1569 1.34315 22.5 3 22.5H8V22Z" fill="#79828F"/>
</svg>
