<svg width="24" height="24" viewBox="0 0 24 24" fill="none" xmlns="http://www.w3.org/2000/svg">
<path d="M0 9.80225C0 15.2124 4.43716 19.6067 9.89519 19.6067C11.925 19.6067 13.7878 18.9886 15.3409 17.9453L20.9255 23.4886C21.2751 23.835 21.7383 24 22.2257 24C23.2602 24 24 23.2254 24 22.2124C24 21.7359 23.8234 21.2913 23.4894 20.9603L17.9477 15.4377C19.1079 13.8562 19.7904 11.9119 19.7904 9.80225C19.7904 4.3943 15.3532 0 9.89519 0C4.43716 0 0 4.3943 0 9.80225ZM2.57752 9.80225C2.57752 5.8018 5.8577 2.55388 9.89519 2.55388C13.9327 2.55388 17.2106 5.8018 17.2106 9.80225C17.2106 13.8049 13.9327 17.0527 9.89519 17.0527C5.8577 17.0527 2.57752 13.8049 2.57752 9.80225Z" fill="#1B1B1E"/>
</svg>
